<svg xmlns:mydata="http://www.w3.org/2000/svg" mydata:contrastcolor="ffffff" mydata:template="Default"
     mydata:presentation="2.5" mydata:layouttype="undefined" mydata:specialfontid="undefined" mydata:id1="004"
     mydata:id2="015" mydata:companyname="Tutalum" mydata:companytagline="Learning Redefined" version="1.1"
     xmlns="http://www.w3.org/2000/svg" xmlns:xlink="http://www.w3.org/1999/xlink" viewBox="0 35 550 400">
    <g fill="#0093b2" fill-rule="nonzero" stroke="none" stroke-width="1" stroke-linecap="butt" stroke-linejoin="miter"
       stroke-miterlimit="10" stroke-dasharray="" stroke-dashoffset="0" font-family="none" font-weight="none"
       font-size="none" text-anchor="none" style="mix-blend-mode: normal">
        <g data-paper-data="{&quot;isGlobalGroup&quot;:true,&quot;bounds&quot;:{&quot;x&quot;:65,&quot;y&quot;:186.04913469213653,&quot;width&quot;:420,&quot;height&quot;:97.90173061572693}}">
            <g data-paper-data="{&quot;isSecondaryText&quot;:true}">
                <path d="M87.37478,279.88699h7.67305v3.83653h-12.47582v-20.70304h4.80276z"
                      data-paper-data="{&quot;glyphName&quot;:&quot;L&quot;,&quot;glyphIndex&quot;:0,&quot;firstGlyphOfWord&quot;:true,&quot;word&quot;:1}"></path>
                <path d="M116.57028,263.02048v3.69443h-8.4972v4.83118h6.50789v3.55234h-6.50789v4.93065h8.4972v3.69443h-13.32838v-20.70304z"
                      data-paper-data="{&quot;glyphName&quot;:&quot;E&quot;,&quot;glyphIndex&quot;:1,&quot;word&quot;:1}"></path>
                <path d="M144.48693,283.72352h-3.72285c-0.41681,0 -0.7602,-0.0971 -1.03018,-0.29129c-0.26998,-0.19419 -0.45707,-0.44286 -0.56127,-0.74599l-1.222,-3.60918h-7.87198l-1.222,3.60918c-0.09473,0.26524 -0.27945,0.50443 -0.55416,0.71757c-0.27471,0.21314 -0.611,0.31971 -1.00886,0.31971h-3.75127l8.01408,-20.70304h4.91644zM131.18697,275.8089h5.65532l-1.90405,-5.66953c-0.12315,-0.35997 -0.26761,-0.78388 -0.43339,-1.27174c-0.16578,-0.48785 -0.32918,-1.01597 -0.49022,-1.58434c-0.15157,0.57785 -0.30787,1.11307 -0.46891,1.60566c-0.16104,0.49259 -0.31261,0.91887 -0.4547,1.27884z"
                      data-paper-data="{&quot;glyphName&quot;:&quot;A&quot;,&quot;glyphIndex&quot;:2,&quot;word&quot;:1}"></path>
                <path d="M156.88696,276.06467v7.65884h-4.80276v-20.70304h6.73524c1.49672,0 2.77319,0.15393 3.82942,0.4618c1.05623,0.30787 1.91826,0.73652 2.5861,1.28595c0.66784,0.54943 1.15333,1.19832 1.45646,1.94668c0.30313,0.74836 0.4547,1.56303 0.4547,2.44401c0,0.67258 -0.08999,1.30726 -0.26998,1.90405c-0.17999,0.59679 -0.44759,1.14859 -0.80283,1.65539c-0.35523,0.5068 -0.79099,0.95913 -1.30726,1.35699c-0.51627,0.39786 -1.1107,0.72468 -1.78327,0.98045c0.32208,0.16104 0.62284,0.35997 0.90229,0.59679c0.27945,0.23682 0.52338,0.52575 0.73178,0.86677l4.4049,7.20414h-4.34806c-0.8052,0 -1.38304,-0.30313 -1.73354,-0.9094l-3.43866,-6.01056c-0.15157,-0.26524 -0.32918,-0.4547 -0.53285,-0.56837c-0.20367,-0.11367 -0.49022,-0.17051 -0.85967,-0.17051zM156.88696,272.75389h1.93247c0.65363,0 1.21016,-0.08289 1.6696,-0.24866c0.45944,-0.16578 0.83598,-0.39549 1.12964,-0.68915c0.29366,-0.29366 0.5068,-0.63705 0.63942,-1.03018c0.13262,-0.39313 0.19893,-0.81704 0.19893,-1.27174c0,-0.9094 -0.29603,-1.61987 -0.88808,-2.1314c-0.59206,-0.51154 -1.50856,-0.76731 -2.74951,-0.76731h-1.93247z"
                      data-paper-data="{&quot;glyphName&quot;:&quot;R&quot;,&quot;glyphIndex&quot;:3,&quot;word&quot;:1}"></path>
                <path d="M179.43248,263.02048c0.2084,0 0.38365,0.00947 0.52575,0.02842c0.14209,0.01895 0.26998,0.05447 0.38365,0.10657c0.11367,0.0521 0.22261,0.12552 0.32682,0.22025c0.1042,0.09473 0.22261,0.22261 0.35523,0.38365l9.83288,12.43319c-0.03789,-0.39786 -0.06631,-0.78388 -0.08526,-1.15806c-0.01895,-0.37418 -0.02842,-0.72705 -0.02842,-1.0586v-10.95542h4.23439v20.70304h-2.50085c-0.36944,0 -0.68205,-0.05684 -0.93782,-0.17051c-0.25577,-0.11367 -0.50206,-0.32208 -0.73889,-0.62521l-9.76183,-12.33372c0.02842,0.35997 0.0521,0.71284 0.07105,1.0586c0.01895,0.34576 0.02842,0.67021 0.02842,0.97334v11.09751h-4.23439v-20.70304z"
                      data-paper-data="{&quot;glyphName&quot;:&quot;N&quot;,&quot;glyphIndex&quot;:4,&quot;word&quot;:1}"></path>
                <path d="M209.56579,283.72352h-4.83118v-20.70304h4.83118z"
                      data-paper-data="{&quot;glyphName&quot;:&quot;I&quot;,&quot;glyphIndex&quot;:5,&quot;word&quot;:1}"></path>
                <path d="M221.85215,263.02048c0.2084,0 0.38365,0.00947 0.52575,0.02842c0.14209,0.01895 0.26998,0.05447 0.38365,0.10657c0.11367,0.0521 0.22261,0.12552 0.32682,0.22025c0.1042,0.09473 0.22261,0.22261 0.35523,0.38365l9.83288,12.43319c-0.03789,-0.39786 -0.06631,-0.78388 -0.08526,-1.15806c-0.01895,-0.37418 -0.02842,-0.72705 -0.02842,-1.0586v-10.95542h4.23439v20.70304h-2.50085c-0.36944,0 -0.68205,-0.05684 -0.93782,-0.17051c-0.25577,-0.11367 -0.50206,-0.32208 -0.73889,-0.62521l-9.76183,-12.33372c0.02842,0.35997 0.0521,0.71284 0.07105,1.0586c0.01895,0.34576 0.02842,0.67021 0.02842,0.97334v11.09751h-4.23439v-20.70304z"
                      data-paper-data="{&quot;glyphName&quot;:&quot;N&quot;,&quot;glyphIndex&quot;:6,&quot;word&quot;:1}"></path>
                <path d="M256.47562,280.25643c0.6631,0 1.25042,-0.05684 1.76196,-0.17051c0.51154,-0.11367 0.99466,-0.26524 1.44935,-0.4547v-3.14027h-2.04615c-0.30313,0 -0.53996,-0.08052 -0.71047,-0.24156c-0.17051,-0.16104 -0.25577,-0.36471 -0.25577,-0.611v-2.64294h7.36045v8.73876c-0.53048,0.38839 -1.08228,0.72231 -1.65539,1.00176c-0.57311,0.27945 -1.18411,0.50917 -1.83301,0.68915c-0.64889,0.17999 -1.34042,0.31261 -2.07457,0.39786c-0.73415,0.08526 -1.52277,0.12788 -2.36586,0.12788c-1.51566,0 -2.91765,-0.26761 -4.20597,-0.80283c-1.28832,-0.53522 -2.40375,-1.27411 -3.3463,-2.21666c-0.94255,-0.94255 -1.68144,-2.06036 -2.21666,-3.35341c-0.53522,-1.29305 -0.80283,-2.69741 -0.80283,-4.21307c0,-1.54408 0.25577,-2.96265 0.76731,-4.2557c0.51154,-1.29305 1.24332,-2.40849 2.19535,-3.3463c0.95203,-0.93782 2.10299,-1.66723 3.45287,-2.18824c1.34989,-0.52101 2.85845,-0.78151 4.52568,-0.78151c0.86203,0 1.67197,0.07105 2.4298,0.21314c0.75783,0.14209 1.45646,0.33629 2.09588,0.58258c0.63942,0.2463 1.22437,0.53996 1.75486,0.88098c0.53048,0.34102 1.00413,0.71047 1.42094,1.10833l-1.39252,2.11719c-0.13262,0.19893 -0.29129,0.35523 -0.47601,0.46891c-0.18472,0.11367 -0.38602,0.17051 -0.6039,0.17051c-0.28419,0 -0.57785,-0.09473 -0.88098,-0.28419c-0.37892,-0.22735 -0.73652,-0.42391 -1.07281,-0.58969c-0.33629,-0.16578 -0.67968,-0.30076 -1.03018,-0.40497c-0.3505,-0.1042 -0.71994,-0.17999 -1.10833,-0.22735c-0.38839,-0.04736 -0.82414,-0.07105 -1.30726,-0.07105c-0.89993,0 -1.70986,0.15867 -2.4298,0.47601c-0.71994,0.31734 -1.33331,0.76494 -1.84011,1.34278c-0.5068,0.57785 -0.89756,1.27174 -1.17227,2.08167c-0.27471,0.80993 -0.41207,1.71223 -0.41207,2.70688c0,1.09886 0.15157,2.07457 0.4547,2.92713c0.30313,0.85256 0.72231,1.5725 1.25753,2.15982c0.53522,0.58732 1.1699,1.03491 1.90405,1.34278c0.73415,0.30787 1.53698,0.4618 2.40849,0.4618z"
                      data-paper-data="{&quot;glyphName&quot;:&quot;G&quot;,&quot;glyphIndex&quot;:7,&quot;lastGlyphOfWord&quot;:true,&quot;word&quot;:1}"></path>
                <path d="M289.09084,276.06467v7.65884h-4.80276v-20.70304h6.73524c1.49672,0 2.77319,0.15393 3.82942,0.4618c1.05623,0.30787 1.91826,0.73652 2.5861,1.28595c0.66784,0.54943 1.15333,1.19832 1.45646,1.94668c0.30313,0.74836 0.4547,1.56303 0.4547,2.44401c0,0.67258 -0.08999,1.30726 -0.26998,1.90405c-0.17999,0.59679 -0.44759,1.14859 -0.80283,1.65539c-0.35523,0.5068 -0.79099,0.95913 -1.30726,1.35699c-0.51627,0.39786 -1.1107,0.72468 -1.78327,0.98045c0.32208,0.16104 0.62284,0.35997 0.90229,0.59679c0.27945,0.23682 0.52338,0.52575 0.73178,0.86677l4.4049,7.20414h-4.34806c-0.8052,0 -1.38304,-0.30313 -1.73354,-0.9094l-3.43866,-6.01056c-0.15157,-0.26524 -0.32918,-0.4547 -0.53285,-0.56837c-0.20367,-0.11367 -0.49022,-0.17051 -0.85967,-0.17051zM289.09084,272.75389h1.93247c0.65363,0 1.21016,-0.08289 1.6696,-0.24866c0.45944,-0.16578 0.83598,-0.39549 1.12964,-0.68915c0.29366,-0.29366 0.5068,-0.63705 0.63942,-1.03018c0.13262,-0.39313 0.19893,-0.81704 0.19893,-1.27174c0,-0.9094 -0.29603,-1.61987 -0.88808,-2.1314c-0.59206,-0.51154 -1.50856,-0.76731 -2.74951,-0.76731h-1.93247z"
                      data-paper-data="{&quot;glyphName&quot;:&quot;R&quot;,&quot;glyphIndex&quot;:8,&quot;firstGlyphOfWord&quot;:true,&quot;word&quot;:2}"></path>
                <path d="M322.43546,263.02048v3.69443h-8.4972v4.83118h6.50789v3.55234h-6.50789v4.93065h8.4972v3.69443h-13.32838v-20.70304z"
                      data-paper-data="{&quot;glyphName&quot;:&quot;E&quot;,&quot;glyphIndex&quot;:9,&quot;word&quot;:2}"></path>
                <path d="M349.869,273.36489c0,1.49672 -0.25814,2.8774 -0.77441,4.14203c-0.51627,1.26463 -1.24332,2.35875 -2.18114,3.28236c-0.93782,0.92361 -2.06746,1.64355 -3.38893,2.15982c-1.32147,0.51627 -2.7874,0.77441 -4.3978,0.77441h-8.0425v-20.70304h8.0425c1.61039,0 3.07633,0.2605 4.3978,0.78151c1.32147,0.52101 2.45111,1.24095 3.38893,2.15982c0.93782,0.91887 1.66486,2.01062 2.18114,3.27526c0.51627,1.26463 0.77441,2.64057 0.77441,4.12782zM344.95256,273.36489c0,-1.02307 -0.13262,-1.94668 -0.39786,-2.77082c-0.26524,-0.82414 -0.64653,-1.52277 -1.14385,-2.09588c-0.49733,-0.57311 -1.10596,-1.0136 -1.8259,-1.32147c-0.71994,-0.30787 -1.53935,-0.4618 -2.45822,-0.4618h-3.21132v13.31417h3.21132c0.91887,0 1.73828,-0.15393 2.45822,-0.4618c0.71994,-0.30787 1.32858,-0.74836 1.8259,-1.32147c0.49733,-0.57311 0.87861,-1.27174 1.14385,-2.09588c0.26524,-0.82414 0.39786,-1.75249 0.39786,-2.78503z"
                      data-paper-data="{&quot;glyphName&quot;:&quot;D&quot;,&quot;glyphIndex&quot;:10,&quot;word&quot;:2}"></path>
                <path d="M371.41986,263.02048v3.69443h-8.4972v4.83118h6.50789v3.55234h-6.50789v4.93065h8.4972v3.69443h-13.32838v-20.70304z"
                      data-paper-data="{&quot;glyphName&quot;:&quot;E&quot;,&quot;glyphIndex&quot;:11,&quot;word&quot;:2}"></path>
                <path d="M393.397,263.02048v3.69443h-8.4972v5.24325h7.07626v3.70864h-7.07626v8.05671h-4.83118v-20.70304z"
                      data-paper-data="{&quot;glyphName&quot;:&quot;F&quot;,&quot;glyphIndex&quot;:12,&quot;word&quot;:2}"></path>
                <path d="M407.07588,283.72352h-4.83118v-20.70304h4.83118z"
                      data-paper-data="{&quot;glyphName&quot;:&quot;I&quot;,&quot;glyphIndex&quot;:13,&quot;word&quot;:2}"></path>
                <path d="M419.36224,263.02048c0.2084,0 0.38365,0.00947 0.52575,0.02842c0.14209,0.01895 0.26998,0.05447 0.38365,0.10657c0.11367,0.0521 0.22261,0.12552 0.32682,0.22025c0.1042,0.09473 0.22261,0.22261 0.35523,0.38365l9.83288,12.43319c-0.03789,-0.39786 -0.06631,-0.78388 -0.08526,-1.15806c-0.01895,-0.37418 -0.02842,-0.72705 -0.02842,-1.0586v-10.95542h4.23439v20.70304h-2.50085c-0.36944,0 -0.68205,-0.05684 -0.93782,-0.17051c-0.25577,-0.11367 -0.50206,-0.32208 -0.73889,-0.62521l-9.76183,-12.33372c0.02842,0.35997 0.0521,0.71284 0.07105,1.0586c0.01895,0.34576 0.02842,0.67021 0.02842,0.97334v11.09751h-4.23439v-20.70304z"
                      data-paper-data="{&quot;glyphName&quot;:&quot;N&quot;,&quot;glyphIndex&quot;:14,&quot;word&quot;:2}"></path>
                <path d="M457.56646,263.02048v3.69443h-8.4972v4.83118h6.50789v3.55234h-6.50789v4.93065h8.4972v3.69443h-13.32838v-20.70304z"
                      data-paper-data="{&quot;glyphName&quot;:&quot;E&quot;,&quot;glyphIndex&quot;:15,&quot;word&quot;:2}"></path>
                <path d="M485,273.36489c0,1.49672 -0.25814,2.8774 -0.77441,4.14203c-0.51627,1.26463 -1.24332,2.35875 -2.18114,3.28236c-0.93782,0.92361 -2.06746,1.64355 -3.38893,2.15982c-1.32147,0.51627 -2.7874,0.77441 -4.3978,0.77441h-8.0425v-20.70304h8.0425c1.61039,0 3.07633,0.2605 4.3978,0.78151c1.32147,0.52101 2.45111,1.24095 3.38893,2.15982c0.93782,0.91887 1.66486,2.01062 2.18114,3.27526c0.51627,1.26463 0.77441,2.64057 0.77441,4.12782zM480.08356,273.36489c0,-1.02307 -0.13262,-1.94668 -0.39786,-2.77082c-0.26524,-0.82414 -0.64653,-1.52277 -1.14385,-2.09588c-0.49733,-0.57311 -1.10596,-1.0136 -1.8259,-1.32147c-0.71994,-0.30787 -1.53935,-0.4618 -2.45822,-0.4618h-3.21132v13.31417h3.21132c0.91887,0 1.73828,-0.15393 2.45822,-0.4618c0.71994,-0.30787 1.32858,-0.74836 1.8259,-1.32147c0.49733,-0.57311 0.87861,-1.27174 1.14385,-2.09588c0.26524,-0.82414 0.39786,-1.75249 0.39786,-2.78503z"
                      data-paper-data="{&quot;glyphName&quot;:&quot;D&quot;,&quot;glyphIndex&quot;:16,&quot;lastGlyphOfWord&quot;:true,&quot;word&quot;:2}"></path>
            </g>
            <g data-paper-data="{&quot;isPrimaryText&quot;:true}">
                <path d="M112.33882,186.14516h-44.55418c-2.2085,0 -2.78464,1.05624 -2.78464,2.78464v7.96982c0,1.7284 0.57613,2.78464 2.78464,2.78464h14.78738v46.85871c0,2.2085 1.05624,2.78464 2.78464,2.78464h9.50617c1.7284,0 2.78464,-0.57613 2.78464,-2.78464v-46.85871h14.69136c2.2085,0 2.78464,-1.05624 2.78464,-2.78464v-7.96982c0,-1.7284 -0.57613,-2.78464 -2.78464,-2.78464z"
                      data-paper-data="{&quot;glyphName&quot;:&quot;T&quot;,&quot;glyphIndex&quot;:0,&quot;firstGlyphOfWord&quot;:true,&quot;word&quot;:1}"></path>
                <path d="M171.96845,186.14516h-9.50617c-1.7284,0 -2.78464,0.57613 -2.78464,2.78464v38.98491c0,6.04938 -4.03292,9.50617 -10.37037,9.50617c-6.33745,0 -10.27435,-3.45679 -10.27435,-9.50617v-38.98491c0,-2.2085 -1.05624,-2.78464 -2.78464,-2.78464h-9.50617c-1.7284,0 -2.78464,0.57613 -2.78464,2.78464v41.09739c0,15.07545 13.92318,20.74074 25.34979,20.74074c11.42661,0 25.44582,-5.66529 25.44582,-20.74074v-41.09739c0,-2.2085 -1.05624,-2.78464 -2.78464,-2.78464z"
                      data-paper-data="{&quot;glyphName&quot;:&quot;U&quot;,&quot;glyphIndex&quot;:1,&quot;word&quot;:1}"></path>
                <path d="M230.92593,186.14516h-44.55418c-2.2085,0 -2.78464,1.05624 -2.78464,2.78464v7.96982c0,1.7284 0.57613,2.78464 2.78464,2.78464h14.78738v46.85871c0,2.2085 1.05624,2.78464 2.78464,2.78464h9.50617c1.7284,0 2.78464,-0.57613 2.78464,-2.78464v-46.85871h14.69136c2.2085,0 2.78464,-1.05624 2.78464,-2.78464v-7.96982c0,-1.7284 -0.57613,-2.78464 -2.78464,-2.78464z"
                      data-paper-data="{&quot;glyphName&quot;:&quot;T&quot;,&quot;glyphIndex&quot;:2,&quot;word&quot;:1}"></path>
                <path d="M267.41427,205.54159l14.0192,40.90535c0.76818,2.30453 1.53635,2.88066 3.64883,2.88066h10.9465c2.11248,0 2.11248,-1.53635 1.63237,-2.68861l-21.22085,-57.51715c-0.8642,-2.01646 -1.82442,-2.97668 -3.9369,-2.97668h-9.21811c-2.11248,0 -3.16872,0.96022 -3.9369,2.97668l-21.31687,57.51715c-0.48011,1.15226 -0.48011,2.68861 1.63237,2.68861h10.46639c2.11248,0 2.88066,-0.57613 3.64883,-2.88066z"
                      data-paper-data="{&quot;glyphName&quot;:&quot;Λ&quot;,&quot;glyphIndex&quot;:3,&quot;word&quot;:1}"></path>
                <path d="M348.9369,235.88453h-27.65432v-46.95473c0,-2.2085 -1.05624,-2.78464 -2.78464,-2.78464h-9.50617c-1.7284,0 -2.78464,0.57613 -2.78464,2.78464v57.61317c0,1.7284 0.57613,2.78464 2.78464,2.78464h39.94513c2.2085,0 2.78464,-1.05624 2.78464,-2.78464v-7.8738c0,-1.7284 -0.57613,-2.78464 -2.78464,-2.78464z"
                      data-paper-data="{&quot;glyphName&quot;:&quot;L&quot;,&quot;glyphIndex&quot;:4,&quot;word&quot;:1}"></path>
                <path d="M409.33471,186.14516h-9.50617c-1.7284,0 -2.78464,0.57613 -2.78464,2.78464v38.98491c0,6.04938 -4.03292,9.50617 -10.37037,9.50617c-6.33745,0 -10.27435,-3.45679 -10.27435,-9.50617v-38.98491c0,-2.2085 -1.05624,-2.78464 -2.78464,-2.78464h-9.50617c-1.7284,0 -2.78464,0.57613 -2.78464,2.78464v41.09739c0,15.07545 13.92318,20.74074 25.34979,20.74074c11.42661,0 25.44582,-5.66529 25.44582,-20.74074v-41.09739c0,-2.2085 -1.05624,-2.78464 -2.78464,-2.78464z"
                      data-paper-data="{&quot;glyphName&quot;:&quot;U&quot;,&quot;glyphIndex&quot;:5,&quot;word&quot;:1}"></path>
                <path d="M482.21536,186.04913h-9.21811c-3.16872,0 -3.64883,2.11248 -4.32099,3.26475l-13.25103,23.6214l-13.15501,-23.6214c-0.76818,-1.15226 -1.15226,-3.26475 -4.41701,-3.26475h-9.50617c-2.2085,0 -2.78464,1.05624 -2.78464,2.78464v57.70919c0,2.2085 1.05624,2.78464 2.78464,2.78464h9.50617c1.7284,0 2.78464,-0.57613 2.78464,-2.78464v-32.55144l9.69822,16.80384c0.48011,0.76818 1.24829,2.01646 2.68861,2.01646h4.8011c1.44033,0 2.30453,-1.24829 2.78464,-2.01646l9.60219,-16.80384v32.55144c0,2.2085 1.05624,2.78464 2.78464,2.78464h9.21811c1.7284,0 2.78464,-0.57613 2.78464,-2.78464v-57.70919c0,-1.7284 -0.57613,-2.78464 -2.78464,-2.78464z"
                      data-paper-data="{&quot;glyphName&quot;:&quot;M&quot;,&quot;glyphIndex&quot;:6,&quot;lastGlyphOfWord&quot;:true,&quot;word&quot;:1}"></path>
            </g>
        </g>
    </g>
</svg>
