<svg xmlns:mydata="http://www.w3.org/2000/svg" mydata:contrastcolor="ffffff" mydata:template="Default"
     mydata:presentation="2.5" mydata:layouttype="undefined" mydata:specialfontid="undefined" mydata:id1="004"
     mydata:id2="015" mydata:companyname="Tutalum" mydata:companytagline="Learning Redefined" version="1.1"
     xmlns="http://www.w3.org/2000/svg" xmlns:xlink="http://www.w3.org/1999/xlink" viewBox="0 35 550 400">
    <g fill="none" fill-rule="none" stroke="none" stroke-width="1" stroke-linecap="butt" stroke-linejoin="miter"
       stroke-miterlimit="10" stroke-dasharray="" stroke-dashoffset="0" font-family="none" font-weight="none"
       font-size="none" text-anchor="none" style="mix-blend-mode: normal">
        <g data-paper-data="{&quot;isGlobalGroup&quot;:true,&quot;bounds&quot;:{&quot;x&quot;:65.00000000000001,&quot;y&quot;:192.32239966566416,&quot;width&quot;:419.99999999999994,&quot;height&quot;:85.35620067102266}}">
            <g data-paper-data="{&quot;isSecondaryText&quot;:true}" fill="#0093b2" fill-rule="nonzero">
                <path d="M196.11014,267.61211h5.57477v2.78738h-9.06416v-15.04154h3.48939z"
                      data-paper-data="{&quot;glyphName&quot;:&quot;L&quot;,&quot;glyphIndex&quot;:0,&quot;firstGlyphOfWord&quot;:true,&quot;word&quot;:1}"></path>
                <path d="M217.32178,255.35795v2.68415h-6.17354v3.51004h4.72823v2.58091h-4.72823v3.5823h6.17354v2.68415h-9.68357v-15.04154z"
                      data-paper-data="{&quot;glyphName&quot;:&quot;E&quot;,&quot;glyphIndex&quot;:1,&quot;word&quot;:1}"></path>
                <path d="M237.60429,270.39949h-2.70479c-0.30283,0 -0.55231,-0.07054 -0.74846,-0.21163c-0.19615,-0.14109 -0.33208,-0.32175 -0.40778,-0.54199l-0.88783,-2.6222h-5.7193l-0.88783,2.6222c-0.06882,0.19271 -0.20303,0.36649 -0.40262,0.52134c-0.19959,0.15485 -0.44392,0.23228 -0.73298,0.23228h-2.72544l5.82253,-15.04154h3.57198zM227.94137,264.64922h4.10881l-1.38337,-4.11913c-0.08947,-0.26153 -0.19443,-0.56952 -0.31487,-0.92397c-0.12044,-0.35444 -0.23916,-0.73814 -0.35617,-1.15109c-0.11012,0.41983 -0.22368,0.80869 -0.34068,1.16657c-0.117,0.35789 -0.22712,0.6676 -0.33036,0.92913z"
                      data-paper-data="{&quot;glyphName&quot;:&quot;A&quot;,&quot;glyphIndex&quot;:2,&quot;word&quot;:1}"></path>
                <path d="M246.61339,264.83505v5.56444h-3.48939v-15.04154h4.89341c1.08742,0 2.01483,0.11184 2.78222,0.33552c0.76739,0.22368 1.39369,0.53511 1.8789,0.93429c0.48521,0.39918 0.83794,0.87063 1.05817,1.41434c0.22024,0.54371 0.33036,1.1356 0.33036,1.77567c0,0.48865 -0.06538,0.94977 -0.19615,1.38337c-0.13077,0.43359 -0.32519,0.83449 -0.58329,1.2027c-0.25809,0.36821 -0.57468,0.69685 -0.94977,0.98591c-0.37509,0.28906 -0.80696,0.52651 -1.29562,0.71233c0.234,0.117 0.45252,0.26153 0.65555,0.43359c0.20303,0.17206 0.38025,0.38197 0.53167,0.62974l3.20033,5.23409h-3.15903c-0.58501,0 -1.00483,-0.22024 -1.25948,-0.66071l-2.49832,-4.3669c-0.11012,-0.19271 -0.23916,-0.33036 -0.38714,-0.41295c-0.14797,-0.08259 -0.35617,-0.12388 -0.62458,-0.12388zM246.61339,262.42964h1.40402c0.47489,0 0.87923,-0.06022 1.21303,-0.18066c0.3338,-0.12044 0.60737,-0.28734 0.82073,-0.5007c0.21336,-0.21336 0.36821,-0.46284 0.46456,-0.74846c0.09635,-0.28562 0.14453,-0.59361 0.14453,-0.92397c0,-0.66071 -0.21508,-1.17689 -0.64523,-1.54855c-0.43015,-0.37165 -1.09603,-0.55748 -1.99762,-0.55748h-1.40402z"
                      data-paper-data="{&quot;glyphName&quot;:&quot;R&quot;,&quot;glyphIndex&quot;:3,&quot;word&quot;:1}"></path>
                <path d="M262.99356,255.35795c0.15141,0 0.27874,0.00688 0.38197,0.02065c0.10324,0.01376 0.19615,0.03957 0.27874,0.07743c0.08259,0.03785 0.16174,0.09119 0.23744,0.16002c0.07571,0.06882 0.16174,0.16174 0.25809,0.27874l7.14396,9.03318c-0.02753,-0.28906 -0.04818,-0.56952 -0.06194,-0.84138c-0.01376,-0.27186 -0.02065,-0.52823 -0.02065,-0.76911v-7.95953h3.07644v15.04154h-1.81696c-0.26841,0 -0.49553,-0.04129 -0.68136,-0.12388c-0.18583,-0.08259 -0.36477,-0.234 -0.53683,-0.45424l-7.09234,-8.96092c0.02065,0.26153 0.03785,0.5179 0.05162,0.76911c0.01376,0.25121 0.02065,0.48693 0.02065,0.70717v8.06276h-3.07644v-15.04154z"
                      data-paper-data="{&quot;glyphName&quot;:&quot;N&quot;,&quot;glyphIndex&quot;:4,&quot;word&quot;:1}"></path>
                <path d="M284.88656,270.39949h-3.51004v-15.04154h3.51004z"
                      data-paper-data="{&quot;glyphName&quot;:&quot;I&quot;,&quot;glyphIndex&quot;:5,&quot;word&quot;:1}"></path>
                <path d="M293.81307,255.35795c0.15141,0 0.27874,0.00688 0.38197,0.02065c0.10324,0.01376 0.19615,0.03957 0.27874,0.07743c0.08259,0.03785 0.16174,0.09119 0.23744,0.16002c0.07571,0.06882 0.16174,0.16174 0.25809,0.27874l7.14396,9.03318c-0.02753,-0.28906 -0.04818,-0.56952 -0.06194,-0.84138c-0.01376,-0.27186 -0.02065,-0.52823 -0.02065,-0.76911v-7.95953h3.07644v15.04154h-1.81696c-0.26841,0 -0.49553,-0.04129 -0.68136,-0.12388c-0.18583,-0.08259 -0.36477,-0.234 -0.53683,-0.45424l-7.09234,-8.96092c0.02065,0.26153 0.03785,0.5179 0.05162,0.76911c0.01376,0.25121 0.02065,0.48693 0.02065,0.70717v8.06276h-3.07644v-15.04154z"
                      data-paper-data="{&quot;glyphName&quot;:&quot;N&quot;,&quot;glyphIndex&quot;:6,&quot;word&quot;:1}"></path>
                <path d="M318.96834,267.88052c0.48177,0 0.90848,-0.04129 1.28013,-0.12388c0.37165,-0.08259 0.72265,-0.19271 1.05301,-0.33036v-2.28152h-1.4866c-0.22024,0 -0.3923,-0.0585 -0.51618,-0.1755c-0.12388,-0.117 -0.18583,-0.26497 -0.18583,-0.44392v-1.9202h5.34765v6.34904c-0.38542,0.28218 -0.78632,0.52479 -1.2027,0.72782c-0.41639,0.20303 -0.8603,0.36993 -1.33175,0.5007c-0.47145,0.13077 -0.97386,0.22712 -1.50725,0.28906c-0.53339,0.06194 -1.10635,0.09291 -1.71889,0.09291c-1.10119,0 -2.11979,-0.19443 -3.0558,-0.58329c-0.93601,-0.38886 -1.74642,-0.92569 -2.43122,-1.61049c-0.6848,-0.6848 -1.22163,-1.49693 -1.61049,-2.43638c-0.38886,-0.93945 -0.58329,-1.95977 -0.58329,-3.06096c0,-1.12184 0.18583,-2.15248 0.55748,-3.09193c0.37165,-0.93945 0.90332,-1.74986 1.595,-2.43122c0.69168,-0.68136 1.5279,-1.21131 2.50864,-1.58984c0.98075,-0.37853 2.07677,-0.5678 3.28808,-0.5678c0.6263,0 1.21475,0.05162 1.76534,0.15485c0.55059,0.10324 1.05817,0.24433 1.52274,0.42327c0.46456,0.17894 0.88955,0.3923 1.27497,0.64007c0.38542,0.24777 0.72954,0.51618 1.03236,0.80524l-1.01172,1.53822c-0.09635,0.14453 -0.21163,0.25809 -0.34584,0.34068c-0.13421,0.08259 -0.28046,0.12388 -0.43875,0.12388c-0.20647,0 -0.41983,-0.06882 -0.64007,-0.20647c-0.2753,-0.16518 -0.53511,-0.30799 -0.77943,-0.42843c-0.24433,-0.12044 -0.49381,-0.21852 -0.74846,-0.29422c-0.25465,-0.07571 -0.52306,-0.13077 -0.80524,-0.16518c-0.28218,-0.03441 -0.59877,-0.05162 -0.94977,-0.05162c-0.65383,0 -1.24228,0.11528 -1.76534,0.34584c-0.52306,0.23056 -0.9687,0.55576 -1.33691,0.97558c-0.36821,0.41983 -0.65211,0.92397 -0.8517,1.51241c-0.19959,0.58845 -0.29939,1.244 -0.29939,1.96665c0,0.79836 0.11012,1.50725 0.33036,2.12667c0.22024,0.61942 0.52479,1.14248 0.91364,1.56919c0.38886,0.42671 0.84998,0.75191 1.38337,0.97558c0.53339,0.22368 1.11667,0.33552 1.74986,0.33552z"
                      data-paper-data="{&quot;glyphName&quot;:&quot;G&quot;,&quot;glyphIndex&quot;:7,&quot;lastGlyphOfWord&quot;:true,&quot;word&quot;:1}"></path>
                <path d="M342.66453,264.83505v5.56444h-3.48939v-15.04154h4.89341c1.08742,0 2.01483,0.11184 2.78222,0.33552c0.76739,0.22368 1.39369,0.53511 1.8789,0.93429c0.48521,0.39918 0.83794,0.87063 1.05817,1.41434c0.22024,0.54371 0.33036,1.1356 0.33036,1.77567c0,0.48865 -0.06538,0.94977 -0.19615,1.38337c-0.13077,0.43359 -0.32519,0.83449 -0.58329,1.2027c-0.25809,0.36821 -0.57468,0.69685 -0.94977,0.98591c-0.37509,0.28906 -0.80696,0.52651 -1.29562,0.71233c0.234,0.117 0.45252,0.26153 0.65555,0.43359c0.20303,0.17206 0.38025,0.38197 0.53167,0.62974l3.20033,5.23409h-3.15903c-0.58501,0 -1.00483,-0.22024 -1.25948,-0.66071l-2.49832,-4.3669c-0.11012,-0.19271 -0.23916,-0.33036 -0.38714,-0.41295c-0.14797,-0.08259 -0.35617,-0.12388 -0.62458,-0.12388zM342.66453,262.42964h1.40402c0.47489,0 0.87923,-0.06022 1.21303,-0.18066c0.3338,-0.12044 0.60737,-0.28734 0.82073,-0.5007c0.21336,-0.21336 0.36821,-0.46284 0.46456,-0.74846c0.09635,-0.28562 0.14453,-0.59361 0.14453,-0.92397c0,-0.66071 -0.21508,-1.17689 -0.64523,-1.54855c-0.43015,-0.37165 -1.09603,-0.55748 -1.99762,-0.55748h-1.40402z"
                      data-paper-data="{&quot;glyphName&quot;:&quot;R&quot;,&quot;glyphIndex&quot;:8,&quot;firstGlyphOfWord&quot;:true,&quot;word&quot;:2}"></path>
                <path d="M366.89068,255.35795v2.68415h-6.17354v3.51004h4.72823v2.58091h-4.72823v3.5823h6.17354v2.68415h-9.68357v-15.04154z"
                      data-paper-data="{&quot;glyphName&quot;:&quot;E&quot;,&quot;glyphIndex&quot;:9,&quot;word&quot;:2}"></path>
                <path d="M386.82218,262.87356c0,1.08742 -0.18755,2.09054 -0.56264,3.00934c-0.37509,0.9188 -0.90332,1.71372 -1.58468,2.38476c-0.68136,0.67104 -1.50209,1.1941 -2.46219,1.56919c-0.9601,0.37509 -2.02515,0.56264 -3.19517,0.56264h-5.84318v-15.04154h5.84318c1.17001,0 2.23507,0.18927 3.19517,0.5678c0.9601,0.37853 1.78083,0.9016 2.46219,1.56919c0.68136,0.6676 1.20959,1.4608 1.58468,2.3796c0.37509,0.9188 0.56264,1.91848 0.56264,2.99902zM383.2502,262.87356c0,-0.7433 -0.09635,-1.41434 -0.28906,-2.01311c-0.19271,-0.59877 -0.46973,-1.10635 -0.83105,-1.52274c-0.36133,-0.41639 -0.80352,-0.73642 -1.32659,-0.9601c-0.52306,-0.22368 -1.11839,-0.33552 -1.78599,-0.33552h-2.33314v9.67325h2.33314c0.6676,0 1.26293,-0.11184 1.78599,-0.33552c0.52306,-0.22368 0.96526,-0.54371 1.32659,-0.9601c0.36133,-0.41639 0.63835,-0.92397 0.83105,-1.52274c0.19271,-0.59877 0.28906,-1.27325 0.28906,-2.02343z"
                      data-paper-data="{&quot;glyphName&quot;:&quot;D&quot;,&quot;glyphIndex&quot;:10,&quot;word&quot;:2}"></path>
                <path d="M402.4797,255.35795v2.68415h-6.17354v3.51004h4.72823v2.58091h-4.72823v3.5823h6.17354v2.68415h-9.68357v-15.04154z"
                      data-paper-data="{&quot;glyphName&quot;:&quot;E&quot;,&quot;glyphIndex&quot;:11,&quot;word&quot;:2}"></path>
                <path d="M418.44693,255.35795v2.68415h-6.17354v3.80942h5.14117v2.69447h-5.14117v5.8535h-3.51004v-15.04154z"
                      data-paper-data="{&quot;glyphName&quot;:&quot;F&quot;,&quot;glyphIndex&quot;:12,&quot;word&quot;:2}"></path>
                <path d="M428.38516,270.39949h-3.51004v-15.04154h3.51004z"
                      data-paper-data="{&quot;glyphName&quot;:&quot;I&quot;,&quot;glyphIndex&quot;:13,&quot;word&quot;:2}"></path>
                <path d="M437.31167,255.35795c0.15141,0 0.27874,0.00688 0.38197,0.02065c0.10324,0.01376 0.19615,0.03957 0.27874,0.07743c0.08259,0.03785 0.16174,0.09119 0.23744,0.16002c0.07571,0.06882 0.16174,0.16174 0.25809,0.27874l7.14396,9.03318c-0.02753,-0.28906 -0.04818,-0.56952 -0.06194,-0.84138c-0.01376,-0.27186 -0.02065,-0.52823 -0.02065,-0.76911v-7.95953h3.07644v15.04154h-1.81696c-0.26841,0 -0.49553,-0.04129 -0.68136,-0.12388c-0.18583,-0.08259 -0.36477,-0.234 -0.53683,-0.45424l-7.09234,-8.96092c0.02065,0.26153 0.03785,0.5179 0.05162,0.76911c0.01376,0.25121 0.02065,0.48693 0.02065,0.70717v8.06276h-3.07644v-15.04154z"
                      data-paper-data="{&quot;glyphName&quot;:&quot;N&quot;,&quot;glyphIndex&quot;:14,&quot;word&quot;:2}"></path>
                <path d="M465.06849,255.35795v2.68415h-6.17354v3.51004h4.72823v2.58091h-4.72823v3.5823h6.17354v2.68415h-9.68357v-15.04154z"
                      data-paper-data="{&quot;glyphName&quot;:&quot;E&quot;,&quot;glyphIndex&quot;:15,&quot;word&quot;:2}"></path>
                <path d="M485,262.87356c0,1.08742 -0.18755,2.09054 -0.56264,3.00934c-0.37509,0.9188 -0.90332,1.71372 -1.58468,2.38476c-0.68136,0.67104 -1.50209,1.1941 -2.46219,1.56919c-0.9601,0.37509 -2.02515,0.56264 -3.19517,0.56264h-5.84318v-15.04154h5.84318c1.17001,0 2.23507,0.18927 3.19517,0.5678c0.9601,0.37853 1.78083,0.9016 2.46219,1.56919c0.68136,0.6676 1.20959,1.4608 1.58468,2.3796c0.37509,0.9188 0.56264,1.91848 0.56264,2.99902zM481.42802,262.87356c0,-0.7433 -0.09635,-1.41434 -0.28906,-2.01311c-0.19271,-0.59877 -0.46973,-1.10635 -0.83105,-1.52274c-0.36133,-0.41639 -0.80352,-0.73642 -1.32659,-0.9601c-0.52306,-0.22368 -1.11839,-0.33552 -1.78599,-0.33552h-2.33314v9.67325h2.33314c0.6676,0 1.26293,-0.11184 1.78599,-0.33552c0.52306,-0.22368 0.96526,-0.54371 1.32659,-0.9601c0.36133,-0.41639 0.63835,-0.92397 0.83105,-1.52274c0.19271,-0.59877 0.28906,-1.27325 0.28906,-2.02343z"
                      data-paper-data="{&quot;glyphName&quot;:&quot;D&quot;,&quot;glyphIndex&quot;:16,&quot;lastGlyphOfWord&quot;:true,&quot;word&quot;:2}"></path>
            </g>
            <g data-paper-data="{&quot;isPrimaryText&quot;:true}" fill="#0093b2" fill-rule="nonzero">
                <path d="M214.24747,199.5051h-32.37031c-1.60456,0 -2.02314,0.7674 -2.02314,2.02314v5.79038c0,1.25574 0.41858,2.02314 2.02314,2.02314h10.74359v34.04464c0,1.60456 0.7674,2.02314 2.02314,2.02314h6.9066c1.25574,0 2.02314,-0.41858 2.02314,-2.02314v-34.04464h10.67383c1.60456,0 2.02314,-0.7674 2.02314,-2.02314v-5.79038c0,-1.25574 -0.41858,-2.02314 -2.02314,-2.02314z"
                      data-paper-data="{&quot;glyphName&quot;:&quot;T&quot;,&quot;glyphIndex&quot;:0,&quot;firstGlyphOfWord&quot;:true,&quot;word&quot;:1}"></path>
                <path d="M257.57066,199.5051h-6.9066c-1.25574,0 -2.02314,0.41858 -2.02314,2.02314v28.32402c0,4.39511 -2.93007,6.9066 -7.53447,6.9066c-4.6044,0 -7.46471,-2.51149 -7.46471,-6.9066v-28.32402c0,-1.60456 -0.7674,-2.02314 -2.02314,-2.02314h-6.9066c-1.25574,0 -2.02314,0.41858 -2.02314,2.02314v29.85882c0,10.95289 10.11572,15.06894 18.41759,15.06894c8.30187,0 18.48735,-4.11605 18.48735,-15.06894v-29.85882c0,-1.60456 -0.7674,-2.02314 -2.02314,-2.02314z"
                      data-paper-data="{&quot;glyphName&quot;:&quot;U&quot;,&quot;glyphIndex&quot;:1,&quot;word&quot;:1}"></path>
                <path d="M300.40551,199.5051h-32.37031c-1.60456,0 -2.02314,0.7674 -2.02314,2.02314v5.79038c0,1.25574 0.41858,2.02314 2.02314,2.02314h10.74359v34.04464c0,1.60456 0.7674,2.02314 2.02314,2.02314h6.9066c1.25574,0 2.02314,-0.41858 2.02314,-2.02314v-34.04464h10.67383c1.60456,0 2.02314,-0.7674 2.02314,-2.02314v-5.79038c0,-1.25574 -0.41858,-2.02314 -2.02314,-2.02314z"
                      data-paper-data="{&quot;glyphName&quot;:&quot;T&quot;,&quot;glyphIndex&quot;:2,&quot;word&quot;:1}"></path>
                <path d="M326.91568,213.59734l10.18549,29.71929c0.55811,1.67433 1.11622,2.09291 2.65102,2.09291h7.95305c1.5348,0 1.5348,-1.11622 1.18598,-1.95338l-15.41776,-41.7884c-0.62787,-1.46504 -1.32551,-2.16267 -2.86031,-2.16267h-6.69731c-1.5348,0 -2.3022,0.69764 -2.86031,2.16267l-15.48752,41.7884c-0.34882,0.83716 -0.34882,1.95338 1.18598,1.95338h7.60423c1.5348,0 2.09291,-0.41858 2.65102,-2.09291z"
                      data-paper-data="{&quot;glyphName&quot;:&quot;Λ&quot;,&quot;glyphIndex&quot;:3,&quot;word&quot;:1}"></path>
                <path d="M386.14498,235.64264h-20.09192v-34.1144c0,-1.60456 -0.7674,-2.02314 -2.02314,-2.02314h-6.9066c-1.25574,0 -2.02314,0.41858 -2.02314,2.02314v41.85816c0,1.25574 0.41858,2.02314 2.02314,2.02314h29.02166c1.60456,0 2.02314,-0.7674 2.02314,-2.02314v-5.72062c0,-1.25574 -0.41858,-2.02314 -2.02314,-2.02314z"
                      data-paper-data="{&quot;glyphName&quot;:&quot;L&quot;,&quot;glyphIndex&quot;:4,&quot;word&quot;:1}"></path>
                <path d="M430.02628,199.5051h-6.9066c-1.25574,0 -2.02314,0.41858 -2.02314,2.02314v28.32402c0,4.39511 -2.93007,6.9066 -7.53447,6.9066c-4.6044,0 -7.46471,-2.51149 -7.46471,-6.9066v-28.32402c0,-1.60456 -0.7674,-2.02314 -2.02314,-2.02314h-6.9066c-1.25574,0 -2.02314,0.41858 -2.02314,2.02314v29.85882c0,10.95289 10.11572,15.06894 18.41759,15.06894c8.30187,0 18.48735,-4.11605 18.48735,-15.06894v-29.85882c0,-1.60456 -0.7674,-2.02314 -2.02314,-2.02314z"
                      data-paper-data="{&quot;glyphName&quot;:&quot;U&quot;,&quot;glyphIndex&quot;:5,&quot;word&quot;:1}"></path>
                <path d="M482.97686,199.43533h-6.69731c-2.3022,0 -2.65102,1.5348 -3.13936,2.37196l-9.62738,17.16185l-9.55761,-17.16185c-0.55811,-0.83716 -0.83716,-2.37196 -3.20913,-2.37196h-6.9066c-1.60456,0 -2.02314,0.7674 -2.02314,2.02314v41.92792c0,1.60456 0.7674,2.02314 2.02314,2.02314h6.9066c1.25574,0 2.02314,-0.41858 2.02314,-2.02314v-23.64986l7.04612,12.20863c0.34882,0.55811 0.90693,1.46504 1.95338,1.46504h3.48818c1.04645,0 1.67433,-0.90693 2.02314,-1.46504l6.97636,-12.20863v23.64986c0,1.60456 0.7674,2.02314 2.02314,2.02314h6.69731c1.25574,0 2.02314,-0.41858 2.02314,-2.02314v-41.92792c0,-1.25574 -0.41858,-2.02314 -2.02314,-2.02314z"
                      data-paper-data="{&quot;glyphName&quot;:&quot;M&quot;,&quot;glyphIndex&quot;:6,&quot;lastGlyphOfWord&quot;:true,&quot;word&quot;:1}"></path>
            </g>
            <g data-paper-data="{&quot;fillRule&quot;:&quot;nonzero&quot;,&quot;fillRuleOriginal&quot;:&quot;evenodd&quot;,&quot;isIcon&quot;:true,&quot;iconStyle&quot;:&quot;standalone&quot;,&quot;selectedEffects&quot;:{&quot;container&quot;:&quot;square_mask_filled_rounded_upright&quot;,&quot;transformation&quot;:&quot;&quot;,&quot;pattern&quot;:&quot;&quot;},&quot;bounds&quot;:{&quot;x&quot;:65.00000000000001,&quot;y&quot;:192.32239966566416,&quot;width&quot;:85.35520066867166,&quot;height&quot;:85.35620067102266},&quot;widthRatioIconToContainer&quot;:0.40908513180304545,&quot;heightRatioIconToContainer&quot;:1.1,&quot;relativeBoundsIconToContainer&quot;:{&quot;top&quot;:0,&quot;left&quot;:2.1597043640124632e-17},&quot;iconType&quot;:&quot;initial&quot;,&quot;initialText&quot;:&quot;T&quot;,&quot;rawInitialId&quot;:824,&quot;disableIconEffects&quot;:&quot;true&quot;,&quot;monogramSpecial&quot;:&quot;multisegment-rectangle&quot;,&quot;suitableAsStandaloneIcon&quot;:true}"
               fill-rule="evenodd">
                <g data-paper-data="{&quot;isPathIcon&quot;:true}">
                    <path d="M65,269.89458c0,4.29901 3.48461,7.78402 7.78312,7.78402h17.43574v-85.3562h-17.43574c-4.29851,0 -7.78312,3.48501 -7.78312,7.78402z"
                          fill-opacity="0.6" fill="#0093b2"></path>
                    <path d="M120.14813,195.08241v-2.76001h-24.94106v2.76001h7.51802v82.59619h9.90502v-82.59619z"
                          fill="#0093b2"></path>
                    <path d="M142.57218,192.3224c4.29901,0 7.78302,3.48501 7.78302,7.78402v69.78816c0,4.29901 -3.48401,7.78402 -7.78302,7.78402h-17.43604v-85.3562z"
                          fill-opacity="0.6" fill="#0093b2"></path>
                </g>
            </g>
        </g>
    </g>
</svg>
